<svg width="99" height="34" viewBox="0 0 99 34" fill="none" xmlns="http://www.w3.org/2000/svg">
<g id="svg-425389203_1264" clip-path="url(#clip0_160_188)">
<g id="Clip path group">
<mask id="mask0_160_188" style="mask-type:luminance" maskUnits="userSpaceOnUse" x="0" y="0" width="99" height="34">
<g id="svg-425389203_1264_a">
<path id="Vector" d="M0 0.959961H98.618V33.05H0V0.959961Z" fill="white"/>
</g>
</mask>
<g mask="url(#mask0_160_188)">
<g id="Group">
<path id="Vector_2" fill-rule="evenodd" clip-rule="evenodd" d="M64.5286 0.959961C67.619 0.959961 70.1181 1.65391 71.6941 2.28234L70.6077 8.99048L69.8853 8.66022C68.4398 8.03179 66.5313 7.4047 63.9346 7.47089C60.78 7.47089 59.3659 8.82535 59.3324 10.1471C59.3324 11.6018 61.0442 12.5605 63.8383 13.9811C68.4411 16.1954 70.5756 18.905 70.5442 22.4415C70.4793 28.8849 65.0223 33.05 56.64 33.05C53.056 33.0165 49.6037 32.2544 47.73 31.3967L48.8478 24.4238L49.9 24.9198C52.4968 26.0777 54.2058 26.5725 57.3952 26.5725C59.6957 26.5725 62.1613 25.6131 62.1927 23.5319C62.1927 22.1768 61.1425 21.1847 58.0521 19.6644C55.0279 18.1769 50.9843 15.6986 51.0499 11.2368C51.084 5.18982 56.64 0.959961 64.5286 0.959961ZM47.7307 1.52287L42.7339 32.5867H34.7463L39.7425 1.52287H47.7307ZM92.173 1.52287L98.618 32.5867H91.2211C91.2211 32.5867 90.4974 29.0173 90.2679 27.9269H80.0107L78.3344 32.5867H69.9522L81.8181 4.1001C82.6403 2.08445 84.0878 1.52287 85.9935 1.52287H92.173ZM12.9844 1.52287C14.7269 1.58839 16.1403 2.14997 16.6006 4.1342L19.3946 18.4109V18.4096L20.2495 22.7056L28.0732 1.52287H36.5203L23.9634 32.5539H15.5156L8.39627 5.56287C5.94 4.11882 3.13522 2.95689 0 2.15063L0.131777 1.52287H12.9844ZM86.5521 9.91641C86.4839 10.1176 86.4063 10.3409 86.3253 10.5716L86.2016 10.9226C85.847 11.9234 85.4765 12.9396 85.5012 12.8908C85.5012 12.8908 82.97 19.7975 82.3118 21.5818H88.9522C88.3401 18.6213 87.7334 15.6596 87.132 12.6969L87.1133 12.6053L87.1106 12.5933L86.5521 9.91641Z" fill="#B3BCC0"/>
</g>
</g>
</g>
</g>
<defs>
<clipPath id="clip0_160_188">
<rect width="99" height="32.09" fill="white" transform="translate(0 0.959961)"/>
</clipPath>
</defs>
</svg>
