<svg width="129" height="14" viewBox="0 0 129 14" fill="none" xmlns="http://www.w3.org/2000/svg">
<g id="svg-1070008354_1837" clip-path="url(#clip0_160_208)">
<g id="Clip path group">
<mask id="mask0_160_208" style="mask-type:luminance" maskUnits="userSpaceOnUse" x="0" y="0" width="129" height="14">
<g id="svg-1070008354_1837_a">
<path id="Vector" d="M0 0.0200195H129V13.97H0V0.0200195Z" fill="white"/>
</g>
</mask>
<g mask="url(#mask0_160_208)">
<g id="Group">
<path id="Vector_2" d="M70.3105 0.547852C65.7618 0.547852 63.4062 3.29846 63.4062 7.00178C63.4062 10.7207 65.7618 13.4861 70.3105 13.4861C74.8732 13.4861 77.2289 10.7207 77.2289 7.00178C77.2363 3.29846 74.8732 0.547852 70.3105 0.547852ZM109.737 0.547852C105.889 0.547852 103.958 2.05117 103.958 4.71398C103.958 6.87787 105.241 7.89704 107.895 8.17522L110.848 8.48376C111.973 8.60849 112.488 9.03355 112.488 9.59155C112.488 10.2218 111.735 10.7872 109.923 10.7872C107.828 10.7872 106.985 10.2653 106.844 9.21655H103.78C103.921 12.0476 105.793 13.4935 109.812 13.4935C113.48 13.4935 115.53 11.9081 115.53 9.52427C115.53 7.449 114.315 6.20253 112.019 5.9465L109.111 5.62319C107.411 5.4402 106.986 5.0217 106.986 4.45631C106.986 3.8261 107.858 3.26154 109.565 3.26154C111.206 3.26154 112.063 3.86303 112.22 4.76568H115.344C115.187 2.16113 112.973 0.547852 109.737 0.547852ZM38.3843 0.840802V8.80625C38.3843 12.3561 41.6051 13.4639 44.3035 13.4639C46.9878 13.4639 50.1947 12.3561 50.1947 8.80625V0.840802H47.0026V8.44766H47.0182C47.0182 10.0462 46.0199 10.6911 44.3125 10.6911C42.6569 10.6911 41.5764 10.0166 41.5764 8.44683V0.840802H38.3843ZM11.6106 0.885113L0.449219 7.70584V13.1841H0.545353L11.7363 6.33464H17.5454C17.7237 6.33464 17.888 6.47414 17.888 6.6719C17.888 6.83274 17.8141 6.8992 17.7237 6.9509L12.2285 10.1922C11.8711 10.4048 11.7437 10.8224 11.7437 11.1384L11.7355 13.1841H18.7229V1.31018C18.7225 1.25258 18.7105 1.19565 18.6875 1.1428C18.6646 1.08994 18.6312 1.04225 18.5894 1.00256C18.5476 0.962882 18.4982 0.932028 18.4442 0.911847C18.3902 0.891667 18.3327 0.882574 18.275 0.885113H11.6106ZM29.065 0.885113L24.2698 13.1857H27.5655L28.4011 10.8815H33.7542L34.5742 13.1849H37.9816L33.1281 0.885113H29.065ZM51.6556 0.885113V3.5471H55.69V13.1849H58.8731V3.5471H62.8918V0.885113H51.6556ZM78.9659 0.885113V13.1857H84.8119C89.2933 13.1857 90.5307 11.5413 90.5307 6.94352C90.5307 2.62312 89.345 0.885113 84.8119 0.885113H78.9659ZM92.3128 0.885113V13.1857H102.378V10.5221H95.5042V8.29256H101.036V5.62319H95.5042V3.5471H102.378V0.885113H92.3128ZM117.155 0.885113L117.17 13.1857H120.347V8.5133L124.657 13.1849H128.69L122.874 7.11256L128.69 0.885113H124.895L120.347 5.88003V0.885113H117.155ZM70.3105 3.31323C72.6884 3.31323 73.9644 4.7427 73.9644 7.00178C73.971 9.31255 72.6884 10.7207 70.3105 10.7207C67.954 10.7207 66.6574 9.30517 66.6574 7.00178C66.6574 4.7427 67.954 3.31323 70.3105 3.31323ZM31.1003 3.44453L32.8216 8.26384H29.3477L31.1003 3.44453ZM82.1498 3.5471H84.6854C86.6837 3.5471 87.2794 4.08295 87.2794 6.94352C87.2794 9.55463 86.6089 10.5221 84.6854 10.5221H82.1506L82.1498 3.5471Z" fill="#B3BCC0"/>
</g>
</g>
</g>
</g>
<defs>
<clipPath id="clip0_160_208">
<rect width="129" height="13.95" fill="white" transform="translate(0 0.0200195)"/>
</clipPath>
</defs>
</svg>
