<svg width="99" height="34" viewBox="0 0 99 34" fill="none" xmlns="http://www.w3.org/2000/svg">
<g id="svg-1997885473_2076" clip-path="url(#clip0_160_180)">
<g id="Clip path group">
<mask id="mask0_160_180" style="mask-type:luminance" maskUnits="userSpaceOnUse" x="0" y="0" width="99" height="34">
<g id="svg-1997885473_2076_a">
<path id="Vector" d="M0 0.959961H98.8589V33.05H0V0.959961Z" fill="white"/>
</g>
</mask>
<g mask="url(#mask0_160_180)">
<g id="Group">
<path id="Vector_2" fill-rule="evenodd" clip-rule="evenodd" d="M68.9709 9.82817C70.9108 9.82817 72.4506 10.6779 73.2533 11.6219H73.3784V10.3162H76.7691V24.7099C76.7691 30.6312 73.2279 33.05 69.0411 33.05C65.0999 33.05 62.7272 30.4507 61.8329 28.3247L64.942 27.0485C65.4952 28.3535 66.8518 29.8938 69.0371 29.8938C71.7175 29.8938 73.3784 28.2632 73.3784 25.1939V24.0407H73.2533C72.454 25.0128 70.9141 25.8625 68.9709 25.8625C64.9052 25.8625 61.18 22.37 61.18 17.8761C61.18 13.35 64.9052 9.82817 68.9709 9.82817ZM34.1483 9.82817C38.6434 9.82817 42.3058 13.1976 42.3058 17.8473C42.3058 22.4643 38.6434 25.8665 34.1483 25.8665C29.6532 25.8665 25.9908 22.4636 25.9908 17.8473C25.9908 13.1976 29.6532 9.82817 34.1483 9.82817ZM51.7469 9.82817C56.242 9.82817 59.9044 13.1976 59.9044 17.8473C59.9044 22.4643 56.2414 25.8665 51.7469 25.8665C47.2518 25.8665 43.5894 22.4636 43.5894 17.8473C43.5894 13.201 47.2518 9.82817 51.7469 9.82817ZM91.5302 9.82482C95.7504 9.82482 97.814 13.1368 98.4889 14.9258L98.8589 15.837L87.9883 20.2768C88.8211 21.886 90.1147 22.7063 91.9295 22.7063C93.7483 22.7063 95.0092 21.8238 95.9337 20.4867L98.705 22.3085C97.8107 23.6142 95.6547 25.8625 91.9295 25.8625C87.31 25.8625 83.8604 22.3413 83.8604 17.844C83.8604 13.0753 87.3394 9.82482 91.5302 9.82482ZM12.8105 0.959961C16.6601 0.959961 19.402 2.44947 21.4629 4.39092L19.0281 6.79098C17.5504 5.42515 15.549 4.36217 12.8071 4.36217C7.72468 4.36217 3.75063 8.40016 3.75063 13.4115C3.75063 18.4223 7.72468 22.4603 12.8065 22.4603C16.1029 22.4603 17.9799 21.1553 19.1826 19.9693C20.1572 19.0079 20.7994 17.6341 21.0522 15.7575L12.8065 15.7615V12.3586H24.4323C24.546 12.9523 24.6048 13.6536 24.6048 14.413C24.6048 16.9648 23.8971 20.1217 21.6168 22.37C19.3986 24.6477 16.5644 25.8631 12.8098 25.8631C5.8517 25.8631 0 20.2741 0 13.4115C0 6.54897 5.85237 0.959961 12.8105 0.959961ZM82.3606 1.87453V25.3751H78.8776V1.87586H82.3606V1.87453ZM34.1483 12.9884C31.6847 12.9884 29.5615 14.9626 29.5615 17.8473C29.5615 20.7033 31.6847 22.7063 34.1483 22.7063C36.6119 22.7063 38.7351 20.7 38.7351 17.8473C38.7351 14.9626 36.6119 12.9884 34.1483 12.9884ZM51.7469 12.9884C49.2833 12.9884 47.1601 14.9626 47.1601 17.8473C47.1601 20.7033 49.2833 22.7063 51.7469 22.7063C54.2105 22.7063 56.333 20.7 56.333 17.8473C56.333 14.9626 54.2105 12.9884 51.7469 12.9884ZM69.29 12.9884C66.8263 12.9884 64.7621 15.0528 64.7621 17.8761C64.7621 20.6706 66.8263 22.7063 69.29 22.7063C71.7208 22.7063 73.6312 20.6712 73.6312 17.8761C73.6312 15.0528 71.7208 12.9884 69.29 12.9884ZM91.6513 12.9269C89.8365 12.9269 87.31 14.5066 87.4016 17.6013L94.6687 14.6263C94.2687 13.6248 93.0667 12.9269 91.6513 12.9269Z" fill="#B3BCC0"/>
</g>
</g>
</g>
</g>
<defs>
<clipPath id="clip0_160_180">
<rect width="99" height="32.09" fill="white" transform="translate(0 0.959961)"/>
</clipPath>
</defs>
</svg>
