<svg width="49" height="34" viewBox="0 0 49 34" fill="none" xmlns="http://www.w3.org/2000/svg">
<g id="svg637787563_2036" clip-path="url(#clip0_160_164)">
<g id="Clip path group">
<mask id="mask0_160_164" style="mask-type:luminance" maskUnits="userSpaceOnUse" x="0" y="0" width="49" height="34">
<g id="svg637787563_2036_a">
<path id="Vector" d="M0 0.889893H49V33.1099H0V0.889893Z" fill="white"/>
</g>
</mask>
<g mask="url(#mask0_160_164)">
<g id="Group">
<path id="Vector_2" fill-rule="evenodd" clip-rule="evenodd" d="M5.35122 10.1317V11.442C3.09655 13.8914 1.39766 17.8343 2.08903 21.5544C3.50064 29.0999 13.5926 30.5021 23.2765 29.6094C29.2283 29.059 36.3749 26.9392 40.6936 24.375V28.0749C35.9346 30.6794 29.088 32.3575 23.8578 32.8663C10.6379 34.147 1.97694 30.2894 0.357923 23.4822C-0.910036 18.1733 1.29295 13.6806 5.3519 10.1324L5.35122 10.1317ZM31.6736 12.3609C34.3572 12.3609 35.9078 14.5251 35.9078 17.3591V18.2639H29.5176C29.5176 19.548 30.3191 20.4938 31.7488 20.4938C32.8617 20.4938 33.4141 20.1864 34.0578 19.548L35.6131 21.0295C34.617 22.0095 33.5725 22.6056 31.7307 22.6056C29.3189 22.6056 27.0119 21.2946 27.0119 17.4739C27.0119 14.2089 29.0263 12.3609 31.6736 12.3609ZM9.68336 12.5288V22.5505C7.78377 22.3693 7.13805 21.2201 7.13805 19.8951L7.14073 12.5294L9.68336 12.5288ZM11.9186 12.5288L17.1179 12.5341C19.3263 12.5341 20.0794 14.0874 20.0794 15.4984V22.4465H17.565V15.5111C17.565 14.9204 17.2582 14.5566 16.5179 14.5566H14.437V22.4465H11.9179V12.5294L11.9186 12.5288ZM10.6815 6.67076C24.7136 -1.84741 46.483 -1.13924 48.7833 10.0438C50.0157 16.034 45.7722 20.9288 41.6347 22.4377V19.7675C45.0721 17.7269 46.9972 14.176 46.3911 10.7701C44.5801 0.469749 24.6995 0.426789 10.6815 7.61118V6.67076ZM24.478 9.82697V12.5294H26.3736V14.5566H24.478V19.446C24.478 20.0219 24.7505 20.3421 25.3506 20.3421H26.3736V22.4344H24.8854C22.8335 22.4344 21.9629 21.01 21.9629 19.6031V9.82697H24.478ZM39.9096 8.41466V22.3391C38.0148 22.1565 37.3724 21.01 37.3724 19.6863V8.41466H39.9096ZM31.5649 14.4378C30.7037 14.4378 30.0372 14.8795 29.7593 15.4782C29.5941 15.838 29.5378 16.1139 29.5176 16.5542H33.3933C33.3437 15.4782 32.8543 14.4378 31.5649 14.4378ZM9.67665 8.757V11.1594H7.14073V8.757H9.67665ZM42.6456 8.41466C42.9131 8.41501 43.1697 8.52113 43.3593 8.70987C43.5489 8.89861 43.6562 9.15467 43.6578 9.42221C43.6578 9.97733 43.2014 10.4291 42.6456 10.4291C42.3786 10.4291 42.1225 10.323 41.9336 10.1342C41.7448 9.94535 41.6387 9.68925 41.6387 9.42221C41.6387 9.15517 41.7448 8.89907 41.9336 8.71024C42.1225 8.52142 42.3786 8.41534 42.6456 8.41534V8.41466ZM42.6456 8.58248C42.4236 8.58248 42.2107 8.67067 42.0537 8.82764C41.8968 8.98462 41.8086 9.19753 41.8086 9.41953C41.8086 9.64152 41.8968 9.85443 42.0537 10.0114C42.2107 10.1684 42.4236 10.2566 42.6456 10.2566C42.8671 10.2562 43.0794 10.1683 43.2364 10.012C43.3933 9.85571 43.482 9.6437 43.4833 9.42221C43.4833 8.96375 43.1054 8.58315 42.6456 8.58315V8.58248ZM42.5879 8.77915C42.9 8.77915 43.0886 8.87111 43.0886 9.16378V9.18392C43.0886 9.36515 42.9987 9.46047 42.8584 9.50746L43.1242 9.95585C43.1262 9.96458 43.1322 9.97733 43.1322 9.9874C43.1322 10.0055 43.1215 10.025 43.092 10.025H42.904C42.8958 10.0249 42.8877 10.0225 42.8807 10.0181C42.8738 10.0137 42.8681 10.0075 42.8644 10.0002L42.608 9.56653C42.6033 9.5578 42.5812 9.54706 42.5724 9.54706H42.4576V9.97666C42.4576 10.0002 42.4415 10.025 42.4113 10.025H42.2415C42.22 10.025 42.1986 10.0002 42.1986 9.97733V8.88991C42.1986 8.82681 42.2234 8.80063 42.2771 8.79258C42.3368 8.78452 42.4999 8.77915 42.5879 8.77915ZM42.608 9.00201H42.4496V9.34904C42.4724 9.34904 42.5879 9.35374 42.608 9.35374C42.7725 9.35374 42.8443 9.2987 42.8443 9.18392V9.16378C42.8443 9.04094 42.7725 9.00201 42.608 9.00201Z" fill="#B3BCC0"/>
</g>
</g>
</g>
</g>
<defs>
<clipPath id="clip0_160_164">
<rect width="49" height="32.22" fill="white" transform="translate(0 0.889893)"/>
</clipPath>
</defs>
</svg>
