<svg width="61" height="34" viewBox="0 0 61 34" fill="none" xmlns="http://www.w3.org/2000/svg">
<g id="svg1156239679_3198" clip-path="url(#clip0_160_172)">
<g id="Clip path group">
<mask id="mask0_160_172" style="mask-type:luminance" maskUnits="userSpaceOnUse" x="0" y="0" width="61" height="34">
<g id="svg1156239679_3198_a">
<path id="Vector" d="M0 0.909912H60.4275V33.0799H0V0.909912Z" fill="white"/>
</g>
</mask>
<g mask="url(#mask0_160_172)">
<g id="Group">
<path id="Vector_2" fill-rule="evenodd" clip-rule="evenodd" d="M38.6887 22.0972C39.9356 22.0972 40.8559 22.4028 41.1053 22.4779V25.3243C40.998 25.2686 40.1467 24.7579 38.8798 24.7579C37.1631 24.7579 35.9753 25.963 35.9753 27.5869C35.9753 29.1625 37.1135 30.4185 38.8791 30.4185C40.1246 30.4185 40.9907 29.9192 41.1046 29.8555V32.7019C40.7761 32.7957 39.8719 33.0792 38.6887 33.0792C35.7105 33.0792 33.0982 31.0043 33.0982 27.5869C33.0982 24.4195 35.4645 22.0972 38.6887 22.0972ZM11.0323 22.0972C12.2791 22.0972 13.1988 22.4028 13.4482 22.4779V25.3243C13.3416 25.2686 12.4896 24.7579 11.2227 24.7579C9.50662 24.7579 8.31879 25.963 8.31879 27.5869C8.31879 29.1625 9.45634 30.4185 11.2227 30.4185C12.4681 30.4185 13.3342 29.9192 13.4482 29.8555V32.7019C13.1197 32.7957 12.2147 33.0792 11.0323 33.0792C8.05334 33.0792 5.44107 31.0043 5.44107 27.5869C5.44107 24.4195 7.808 22.0972 11.0323 22.0972ZM49.4402 22.0972C52.6698 22.0972 54.9891 24.5582 54.9891 27.5862C54.9891 30.6209 52.6698 33.0792 49.4402 33.0792C46.2112 33.0792 43.8952 30.6209 43.8952 27.5869C43.8952 24.5575 46.2112 22.0972 49.4402 22.0972ZM27.2067 22.0945C28.4964 22.0945 29.7097 22.4109 29.7888 22.4316V24.6963C29.7492 24.6829 28.6338 24.3719 27.7175 24.3719C26.6557 24.3719 26.0785 24.7318 26.0785 25.2412C26.0785 25.8872 26.8574 26.1124 27.2925 26.2518L28.0238 26.4864C29.7439 27.0393 30.5275 28.2289 30.5275 29.5204C30.5275 32.1845 28.2081 33.0799 26.1797 33.0799C24.7707 33.0799 23.4508 32.8185 23.3208 32.7897V30.3495C23.554 30.4085 24.6648 30.7436 25.8224 30.7436C27.141 30.7436 27.7463 30.3548 27.7463 29.7537C27.7463 29.2162 27.2221 28.9059 26.5652 28.6974C26.4043 28.6431 26.1636 28.5667 25.9994 28.5124C24.524 28.0413 23.2933 27.1653 23.2933 25.4094C23.2933 23.4256 24.764 22.0945 27.2067 22.0945ZM19.7405 22.2855V32.8909H17.0914V22.2855H19.7405ZM58.9119 31.4942V31.6604H58.4434V32.8902H58.2516V31.6604H57.7804V31.4942H58.9119ZM59.3114 31.4942L59.725 32.6396H59.7317L60.1326 31.4942H60.4275V32.8902H60.2305V31.7462H60.2238L59.8041 32.8902H59.6225L59.2122 31.7462H59.2035V32.8902H59.0105V31.4942H59.3114ZM49.4408 24.7975C47.8682 24.7975 46.7012 26.0474 46.7012 27.5869C46.7012 29.1297 47.8689 30.3783 49.4408 30.3783C51.0107 30.3783 52.1818 29.1297 52.1818 27.5869C52.1818 26.0474 51.0114 24.7975 49.4408 24.7975ZM15.7668 0.909912C16.0969 0.911433 16.4144 1.03646 16.6568 1.26036C16.8992 1.48427 17.049 1.79082 17.0766 2.11964L17.082 2.23357V16.318C17.0836 16.6685 16.946 17.0052 16.6994 17.2543C16.4528 17.5034 16.1174 17.6444 15.7668 17.6464C15.436 17.6449 15.1177 17.5194 14.8749 17.2947C14.6321 17.07 14.4825 16.7623 14.4557 16.4326L14.4503 16.318V2.23424C14.4499 1.88418 14.5884 1.54823 14.8353 1.30001C15.0821 1.05178 15.4167 0.911508 15.7668 0.909912ZM44.6647 0.909912C44.9948 0.911433 45.3123 1.03646 45.5547 1.26036C45.7971 1.48427 45.9469 1.79082 45.9746 2.11964L45.9793 2.23357V16.318C45.9809 16.6685 45.8432 17.0052 45.5966 17.2543C45.35 17.5034 45.0146 17.6444 44.6641 17.6464C44.3332 17.6449 44.0149 17.5194 43.7721 17.2947C43.5294 17.07 43.3798 16.7623 43.3529 16.4326L43.3482 16.318V2.23424C43.3478 1.88429 43.4862 1.54845 43.7329 1.30024C43.9797 1.05204 44.3147 0.911685 44.6647 0.909912ZM1.31519 9.56431C1.64523 9.56565 1.96281 9.69051 2.20536 9.91429C2.44792 10.1381 2.59787 10.4446 2.62568 10.7734L2.63037 10.8873V13.6713C2.63198 14.0218 2.49436 14.3586 2.24775 14.6077C2.00114 14.8567 1.66572 14.9978 1.31519 14.9997C0.984479 14.9981 0.666371 14.8727 0.423639 14.6481C0.180908 14.4235 0.0311862 14.1162 0.00402198 13.7866L0 13.6707V10.8866C0 10.1561 0.591901 9.56364 1.31586 9.56364L1.31519 9.56431ZM30.2171 9.56431C30.4826 9.56431 30.7299 9.64474 30.9371 9.7828L31.0229 9.84513C31.3024 10.0663 31.4914 10.3967 31.5236 10.7734L31.5283 10.8873V13.6713C31.5283 14.0199 31.3956 14.3362 31.1797 14.5728L31.1033 14.6485C30.8635 14.8742 30.5465 14.9998 30.2171 14.9997H30.2131C29.8824 14.9981 29.5643 14.8727 29.3215 14.6481C29.0788 14.4235 28.9291 14.1162 28.9019 13.7866L28.8972 13.6713V10.8873C28.8972 10.1568 29.4891 9.56431 30.2131 9.56431H30.2171ZM59.115 9.56431C59.7981 9.56431 60.3605 10.0958 60.4182 10.7734L60.4228 10.8873V13.6713C60.4228 14.4066 59.8356 14.9997 59.115 14.9997C58.7844 14.9983 58.4662 14.8729 58.2236 14.6482C57.9809 14.4236 57.8314 14.1162 57.8045 13.7866L57.7998 13.6713V10.8873C57.7991 10.5376 57.9372 10.2019 58.1838 9.95386C58.4303 9.70583 58.7653 9.56573 59.115 9.56431ZM8.54134 5.90833C9.22776 5.90833 9.79419 6.44181 9.85183 7.11939L9.85653 7.23333V13.672C9.85653 14.4066 9.26597 14.999 8.54134 14.999C8.21065 14.9978 7.89246 14.8725 7.64968 14.648C7.4069 14.4235 7.2572 14.1162 7.23018 13.7866L7.22548 13.672V7.23333C7.22548 6.5028 7.81671 5.90833 8.54134 5.90833ZM22.993 5.90833C23.6794 5.90833 24.2458 6.44181 24.3035 7.11939L24.3082 7.23333V13.672C24.3082 14.4066 23.7169 14.999 22.993 14.999C22.6623 14.9978 22.3441 14.8725 22.1013 14.648C21.8585 14.4235 21.7088 14.1162 21.6818 13.7866L21.6771 13.672V7.23333C21.6771 6.5028 22.2677 5.90833 22.993 5.90833ZM37.4393 5.90833C38.1257 5.90833 38.6921 6.44181 38.7497 7.11939L38.7544 7.23333V13.672C38.7544 14.4066 38.1639 14.999 37.4393 14.999C37.1086 14.9978 36.7904 14.8725 36.5476 14.648C36.3048 14.4235 36.1551 14.1162 36.1281 13.7866L36.1234 13.672V7.23333C36.1234 6.5028 36.714 5.90833 37.4393 5.90833ZM51.8909 5.90833C52.5766 5.90833 53.1431 6.44181 53.2007 7.11939L53.2061 7.23333V13.672C53.2061 14.4066 52.6148 14.999 51.8909 14.999C51.5602 14.9978 51.242 14.8725 50.9992 14.648C50.7564 14.4235 50.6067 14.1162 50.5797 13.7866L50.575 13.672V7.23333C50.575 6.5028 51.1656 5.90833 51.8909 5.90833Z" fill="#B3BCC0"/>
</g>
</g>
</g>
</g>
<defs>
<clipPath id="clip0_160_172">
<rect width="61" height="32.17" fill="white" transform="translate(0 0.909912)"/>
</clipPath>
</defs>
</svg>
