<svg width="32" height="32" viewBox="0 0 32 32" fill="none" xmlns="http://www.w3.org/2000/svg">
<g id="svg1399014401_2523" clip-path="url(#clip0_160_200)">
<g id="Clip path group">
<mask id="mask0_160_200" style="mask-type:luminance" maskUnits="userSpaceOnUse" x="0" y="0" width="32" height="32">
<g id="svg1399014401_2523_a">
<path id="Vector" d="M0 0H32V32H0V0Z" fill="white"/>
</g>
</mask>
<g mask="url(#mask0_160_200)">
<g id="Group">
<path id="Vector_2" fill-rule="evenodd" clip-rule="evenodd" d="M15.9993 0C24.836 0 32 7.16533 32 16.0033C32 24.8367 24.836 32 15.9993 32C7.16133 32 0 24.8373 0 16.0033C0 7.16667 7.16133 0 15.9993 0ZM6.80867 13.7587C6.79867 13.8107 6.77333 13.8287 6.77333 13.8287C5.842 13.702 5.32667 13.5113 5.32667 13.5113L5.11533 14.1113C5.74333 14.4087 6.66733 14.4993 6.66733 14.4993C6.48733 15.6527 5.574 17.8153 5.574 17.8153C5.574 17.8153 4.764 17.5687 3.73933 17.5687C2.40733 17.5687 1.93933 18.1953 1.90467 18.5913C1.818 19.6187 3.12 20.1087 4.022 20.1087C5.65533 20.1087 6.56667 19.2873 6.68867 19.17L6.70267 19.156C6.70267 19.156 11.6293 21.026 16.7927 21.026C23.55 21.026 29.246 19.226 29.246 19.226L29.0693 18.5913C29.0693 18.5913 24.9413 20.0293 17.0393 19.932C11.77 19.868 7.68867 18.3787 7.422 18.2787L7.40867 18.274C7.40867 18.274 7.56667 17.992 7.65533 17.8153C8.202 16.702 8.85533 14.464 8.85533 14.464C8.85533 14.464 12.594 13.4173 12.594 10.442C12.594 9.50133 11.6953 8.89267 10.8307 8.85533C7.812 8.738 6.99467 13.026 6.80867 13.7587ZM3.63333 18.3447C4.12855 18.3786 4.61604 18.4856 5.08 18.662C5.08 18.662 4.28533 19.2773 3.63333 19.2973C3.13533 19.3127 2.822 18.988 2.822 18.8033C2.822 18.4967 3.11 18.3727 3.38667 18.3447C3.47867 18.3353 3.55333 18.3387 3.63333 18.3447ZM25.3293 13.8993C23.526 13.8993 22.5493 15.4547 22.5073 16.3687C22.4987 16.568 22.472 16.5807 22.472 16.5807C22.43 16.6287 21.8087 17.3567 21.0253 17.3567C20.3987 17.3567 20.2853 16.846 20.2853 16.51C20.2853 16.146 20.5953 14.7107 21.4493 14.7107C21.842 14.7107 22.1007 14.9887 22.1707 15.074L22.19 15.0987L22.4367 14.2873C22.4367 14.2873 22.0473 13.9727 21.2373 13.97C19.4933 13.9687 18.316 15.26 18.274 16.4393C18.2653 16.616 18.236 16.6753 18.2387 16.686C18.1807 16.7573 17.7733 17.2507 17.2153 17.2507C16.8347 17.2507 16.8273 16.9587 16.8273 16.8273C16.8273 16.7507 16.964 16.234 17.1193 15.6693L17.238 15.2427C17.4087 14.6307 17.5687 14.076 17.5687 14.076L15.5927 14.1113L14.9227 16.616C14.9227 16.616 13.822 17.3907 12.312 17.498C11.5333 17.5513 11.254 17.07 11.254 16.7927V16.686C11.2553 16.686 11.5807 16.722 11.818 16.722C12.0047 16.722 14.3227 16.542 14.3227 15.134C14.3227 14.3287 13.506 14.0407 12.4887 14.0407C10.6073 14.0407 9.278 15.196 9.278 16.5807C9.278 17.8433 10.356 18.38 11.7473 18.38C13.3267 18.38 14.8873 17.4273 14.8873 17.4273C14.8873 17.4273 14.982 18.38 16.2273 18.38C17.514 18.38 18.5207 17.4273 18.5207 17.4273C18.5207 17.4273 19.0767 18.3447 20.3553 18.3447C21.662 18.3447 22.6487 17.286 22.6487 17.286C22.6487 17.286 23.0127 18.274 24.3067 18.274C24.8569 18.2803 25.3889 18.077 25.7947 17.7053L25.8427 17.6567L25.8587 17.6393C25.8587 17.6393 26.1413 18.274 27.0233 18.274C28.1 18.274 28.8927 17.5333 28.8927 17.5333L28.7167 16.898C28.7167 16.898 28.3073 17.2153 28.0107 17.2153C27.7867 17.2153 27.658 17.0333 27.658 16.8273C27.658 16.6293 27.794 16.0953 27.9493 15.55L28.0287 15.278C28.2133 14.648 28.3987 14.076 28.3987 14.076L26.6 14.1113L26.5293 14.3933C26.5293 14.3933 26.2607 13.8993 25.3293 13.8993ZM25.6827 14.6407C26.0533 14.6407 26.2467 14.9353 26.2467 15.1693C26.2467 15.2173 26.0367 17.3567 24.9767 17.3567C24.4913 17.3567 24.4833 16.8053 24.4833 16.6513C24.4833 16.2433 24.8033 14.6407 25.6827 14.6407ZM12.5587 14.6053C12.824 14.6207 13.026 14.8 13.0173 14.9933C12.974 16.2467 11.4307 16.0513 11.4307 16.0513C11.4307 16.0513 11.6573 14.55 12.5587 14.6047V14.6053ZM10.972 9.70133C11.552 9.70133 11.76 10.16 11.712 10.5833C11.43 13.0687 8.96067 13.6527 8.96067 13.6527C8.96067 13.6527 9.558 9.70133 10.972 9.70133ZM16.9687 11.748C16.3407 11.748 15.9107 12.006 15.9107 12.5947C15.9107 13.19 16.4127 13.3347 16.9687 13.3347C17.526 13.3347 18.062 13.0947 18.062 12.488C18.062 11.88 17.4233 11.748 16.9687 11.748Z" fill="#B3BCC0"/>
</g>
</g>
</g>
</g>
<defs>
<clipPath id="clip0_160_200">
<rect width="32" height="32" fill="white"/>
</clipPath>
</defs>
</svg>
