<svg width="55" height="34" viewBox="0 0 55 34" fill="none" xmlns="http://www.w3.org/2000/svg">
<g id="svg1755014338_1539">
<path id="Vector" d="M3.42292 7.35456V9.47574H0.925781V12.2454H3.42292V23.361C3.42292 24.2054 4.32706 24.88 5.46529 24.88C6.60218 24.88 7.5231 24.2054 7.5231 23.361V12.2461H10.8472V9.47574H7.5231V7.35523C7.5231 4.79746 9.6017 4.32535 12.4463 4.93628V2.1666C8.44468 1.30753 3.42224 1.70924 3.42224 7.35523L3.42292 7.35456ZM16.2118 12.2448H16.1272V9.47642H12.8044V23.3604C12.8044 24.2054 13.7079 24.88 14.8468 24.88C15.9837 24.88 16.904 24.2054 16.904 23.3604V16.3812C16.904 13.0837 19.1308 12.2441 21.8271 12.2441V9.12568C19.389 9.11897 17.1052 9.89086 16.2124 12.2441L16.2118 12.2448ZM44.909 9.12635C40.9504 9.12635 37.7396 11.0189 37.7396 14.7368C37.7396 16.7185 38.6518 18.1805 40.1039 19.1153C39.9972 19.1824 39.8919 19.2521 39.7907 19.3245C37.9897 20.6074 37.7966 22.8219 39.4479 24.031C38.6383 24.715 37.4941 25.9577 37.4941 27.6839C37.4941 30.4207 40.1448 32.1891 44.903 32.1891C49.6605 32.1891 53.2938 30.0371 53.2938 26.7235C53.2938 23.4107 50.908 22.111 46.5536 22.111H43.7191C41.7257 22.111 41.8947 20.7805 42.5534 20.2084C42.5869 20.1803 42.6232 20.1514 42.6621 20.1226C43.4013 20.2747 44.1543 20.3495 44.909 20.3459C48.869 20.3459 52.0785 18.4547 52.0785 14.7368C52.0785 13.8999 51.9141 13.1541 51.6177 12.5036C52.1844 12.3433 52.8136 12.2655 53.4776 12.2448V9.47574C51.7169 9.47574 50.5801 9.58975 49.3774 10.1551C48.1527 9.47038 46.5999 9.12635 44.909 9.12635ZM42.7325 24.88H46.5536C48.1232 24.88 49.193 25.3494 49.193 26.7242C49.193 28.5704 47.5517 29.4201 44.903 29.4201C40.8135 29.4201 41.0577 26.185 42.7325 24.88ZM44.909 17.5749C43.2147 17.5749 41.8397 16.9411 41.8397 14.7355C41.8397 12.5291 43.2147 11.8974 44.909 11.8974C46.6046 11.8974 47.9783 12.5298 47.9783 14.7355C47.9783 16.9411 46.6046 17.5749 44.909 17.5749ZM29.2763 9.12635C24.826 9.12635 22.1075 11.7827 22.1075 17.0035C22.1075 22.2243 24.826 24.88 29.2763 24.88C33.7266 24.88 36.445 22.2243 36.445 17.0035C36.445 11.7827 33.7266 9.12635 29.2763 9.12635ZM29.2763 22.111C27.582 22.111 26.2077 21.4464 26.2077 17.0035C26.2077 12.5626 27.582 11.9001 29.2763 11.9001C30.9712 11.9001 32.3449 12.5626 32.3449 17.0035C32.3449 21.4464 30.9712 22.111 29.2763 22.111Z" fill="#B3BCC0"/>
</g>
</svg>
