<svg width="98" height="32" viewBox="0 0 98 32" fill="none" xmlns="http://www.w3.org/2000/svg">
<g id="svg1939543768_2688" clip-path="url(#clip0_160_156)">
<g id="Clip path group">
<mask id="mask0_160_156" style="mask-type:luminance" maskUnits="userSpaceOnUse" x="0" y="0" width="98" height="32">
<g id="svg1939543768_2688_a">
<path id="Vector" d="M0 0H97.5607V32H0V0Z" fill="white"/>
</g>
</mask>
<g mask="url(#mask0_160_156)">
<g id="Group">
<path id="Vector_2" fill-rule="evenodd" clip-rule="evenodd" d="M97.5009 7.62006C98.2062 11.6147 92.6916 16.2667 83.3349 20.4441C83.8696 20.0534 84.2296 19.4761 84.3042 18.6654C84.3349 18.3327 84.3389 18.1954 84.3409 18.0081V15.3334H80.7636V16.7881H81.7976V18.2341C81.7996 18.3594 81.7936 18.4987 81.7756 18.6127C81.7289 18.8774 81.4729 19.3341 80.7429 19.3341C80.0129 19.3341 79.7589 18.8774 79.7189 18.6167C79.6983 18.4916 79.6894 18.3648 79.6922 18.2381V13.6801C79.6922 13.5187 79.7049 13.3414 79.7349 13.2101C79.7896 12.9607 80.0029 12.4834 80.7389 12.4834C81.5096 12.4834 81.7029 12.9887 81.7456 13.2101C81.7736 13.3514 81.7796 13.5901 81.7776 13.5887V14.1461H84.3202L84.3209 13.7921L84.3216 13.7321V13.6034C84.3202 13.4542 84.3124 13.3052 84.2982 13.1567C84.1129 11.2901 82.5462 10.6941 80.7576 10.6941C78.9662 10.6941 77.4382 11.2941 77.2142 13.1561C77.1942 13.3234 77.1716 13.6361 77.1716 13.8134L77.1696 18.0087C77.1736 18.1961 77.1776 18.3334 77.2062 18.6661C77.3776 20.4794 78.9662 21.1261 80.7576 21.1261C81.2086 21.1299 81.6586 21.0822 82.0989 20.9841C73.9636 24.4574 63.1882 27.5621 51.1842 29.6267C24.2776 34.2561 1.38757 31.9074 0.0602351 24.3801C-0.658432 20.3014 5.1009 15.5414 14.8102 11.3001C14.3182 11.6501 13.9796 12.1567 13.8636 12.8567C13.7916 13.3047 13.7809 13.7034 13.8862 14.2034C14.3276 16.2367 17.9089 16.8267 18.4296 18.1181C18.5282 18.3587 18.4982 18.6694 18.4516 18.8567C18.3669 19.1874 18.1389 19.5261 17.4696 19.5261C16.8362 19.5261 16.4529 19.1674 16.4529 18.6221V17.6574H13.7469L13.7449 18.4287L13.7489 18.6054C13.8409 20.6854 15.5669 21.3214 17.4129 21.3214C19.2382 21.3214 20.7402 20.7054 20.9782 19.0441C21.1016 18.1841 21.0089 17.6201 20.9682 17.4067C20.5429 15.3207 16.7136 14.6974 16.4289 13.5321C16.3896 13.3593 16.3862 13.1802 16.4189 13.0061C16.4896 12.6894 16.7096 12.3394 17.3402 12.3394C17.9289 12.3394 18.2782 12.6994 18.2782 13.2434V13.8587H20.7929V13.1601L20.7882 12.9834C20.6836 10.9701 18.7809 10.6501 17.3929 10.6501C16.8936 10.6501 16.4196 10.6954 15.9902 10.7961C24.0622 7.41273 34.6336 4.39673 46.3802 2.37606C73.2896 -2.25727 96.1749 0.0933959 97.5002 7.6194L97.5009 7.62006ZM50.2009 10.7034C48.4256 10.7034 46.9716 11.2807 46.7096 12.8927C46.6292 13.3335 46.6374 13.7858 46.7336 14.2234C47.1669 16.2367 50.7142 16.8234 51.2289 18.1001C51.3276 18.3387 51.2956 18.6421 51.2509 18.8294C51.1682 19.1594 50.9422 19.4921 50.2769 19.4921C49.6536 19.4921 49.2729 19.1341 49.2729 18.6001L49.2709 17.6441H46.5929L46.5889 18.4047L46.5929 18.5847C46.6862 20.6401 48.3949 21.2674 50.2202 21.2674C52.0249 21.2674 53.5136 20.6601 53.7496 19.0141C53.8722 18.1594 53.7856 17.6041 53.7416 17.3947C53.3182 15.3287 49.5282 14.7114 49.2462 13.5561C49.2069 13.3866 49.2035 13.2109 49.2362 13.0401C49.3096 12.7194 49.5249 12.3787 50.1496 12.3787C50.7349 12.3787 51.0756 12.7294 51.0756 13.2714V13.8807H53.5722V13.1874L53.5676 13.0127C53.4636 11.0214 51.5769 10.7034 50.2009 10.7034ZM58.7022 10.9601H56.1529V18.1841C56.1529 18.3794 56.1682 18.6794 56.1756 18.7614C56.3529 20.6214 57.8429 21.2254 59.6982 21.2254C61.5516 21.2254 63.0396 20.6221 63.2189 18.7614C63.2296 18.6681 63.2476 18.2914 63.2416 18.1081V10.9601H60.6902V18.3347C60.6922 18.4647 60.6862 18.6081 60.6662 18.7154C60.6176 18.9607 60.3996 19.4387 59.7002 19.4387C58.9942 19.4387 58.7829 18.9587 58.7269 18.7134C58.7079 18.5877 58.6996 18.4605 58.7022 18.3334V10.9601ZM29.0322 10.9641H24.5456L22.6762 20.9287H25.4009L26.7822 11.8887H26.8382L28.1816 20.9287H30.8956L29.0322 10.9641ZM37.2456 10.9641H33.1302L32.9062 20.9287H35.4329L35.4956 11.9701H35.5502L37.2376 20.9287H39.7969L41.4829 11.9701H41.5349L41.6016 20.9287H44.1222L43.9042 10.9641H39.7909L38.5442 18.5821H38.4902L37.2456 10.9641ZM69.8016 10.9641H66.0549V20.8254H68.5369L68.3976 12.7334H68.4522L70.9449 20.8254H74.5342V10.9641H72.0376L72.1749 18.7874H72.1202L69.8016 10.9641Z" fill="#B3BCC0"/>
</g>
</g>
</g>
</g>
<defs>
<clipPath id="clip0_160_156">
<rect width="98" height="32" fill="white"/>
</clipPath>
</defs>
</svg>
